# xmcd CD database file
#
# Track frame offsets:
#	150
#	22590
#	39793
#	66833
#	90413
#	111903
#	130898
#	149928
#	164328
#	179960
#	197453
#	215428
#	247868
#	261770
#	272103
#	283163
#
# Disc length: 4169 seconds
#
# Revision: 0
# Processed by: cddbd v1.5.2PL0 Copyright (c) Steve Scherf et al.
# Submitted via: CDex 1.70beta2
#
DISCID=ec104710
DTITLE=Ella Fitzgerald and Louis Armstrong (The Legends of XX-th Century) - Greatest Hits Vol. 2
DYEAR=1900
DGENRE=Jazz
TTITLE0=Track_01
TTITLE1=Track_02
TTITLE2=Track_03
TTITLE3=Track_04
TTITLE4=Track_05
TTITLE5=Track_06
TTITLE6=Track_07
TTITLE7=Track_08
TTITLE8=Track_09
TTITLE9=Track_10
TTITLE10=Track_11
TTITLE11=Track_12
TTITLE12=Track_13
TTITLE13=Track_14
TTITLE14=Track_15
TTITLE15=Track_16
EXTD=
EXTT0=
EXTT1=
EXTT2=
EXTT3=
EXTT4=
EXTT5=
EXTT6=
EXTT7=
EXTT8=
EXTT9=
EXTT10=
EXTT11=
EXTT12=
EXTT13=
EXTT14=
EXTT15=
PLAYORDER=
